<svg width="480" height="480" viewBox="0 0 480 480" fill="none" xmlns="http://www.w3.org/2000/svg">
<path d="M432.994 412.5C431.677 414.781 429.783 416.675 427.502 417.991C425.221 419.308 422.634 420.001 420 420H60C57.3683 419.997 54.7835 419.302 52.5054 417.985C50.2272 416.667 48.3359 414.773 47.0212 412.493C45.7065 410.214 45.0147 407.628 45.0154 404.996C45.0161 402.364 45.7091 399.779 47.025 397.5C75.5813 348.131 119.587 312.731 170.944 295.95C145.541 280.827 125.804 257.784 114.765 230.359C103.726 202.933 101.994 172.643 109.836 144.138C117.679 115.633 134.661 90.4911 158.175 72.5723C181.69 54.6535 210.436 44.949 240 44.949C269.564 44.949 298.31 54.6535 321.825 72.5723C345.339 90.4911 362.321 115.633 370.164 144.138C378.006 172.643 376.274 202.933 365.235 230.359C354.196 257.784 334.459 280.827 309.056 295.95C360.413 312.731 404.419 348.131 432.975 397.5C434.294 399.779 434.991 402.364 434.994 404.997C434.997 407.631 434.307 410.218 432.994 412.5Z" fill="#E6E6E6"/>
</svg>
