<svg width="480" height="480" viewBox="0 0 480 480" fill="none" xmlns="http://www.w3.org/2000/svg">
<path d="M187.5 67.5C187.5 57.1165 190.579 46.9661 196.348 38.3326C202.117 29.699 210.316 22.9699 219.909 18.9963C229.502 15.0227 240.058 13.983 250.242 16.0088C260.426 18.0345 269.781 23.0346 277.123 30.3769C284.465 37.7192 289.466 47.0738 291.491 57.2578C293.517 67.4418 292.477 77.9978 288.504 87.5909C284.53 97.184 277.801 105.383 269.168 111.152C260.534 116.921 250.384 120 240 120C226.076 120 212.723 114.469 202.877 104.623C193.031 94.7774 187.5 81.4239 187.5 67.5ZM403.913 263.963L319.069 167.775C314.142 162.189 308.083 157.714 301.294 154.65C294.506 151.585 287.142 150 279.694 150H200.306C192.858 150 185.495 151.585 178.706 154.65C171.917 157.714 165.858 162.189 160.931 167.775L76.0876 263.963C70.5784 269.599 67.5089 277.178 67.5428 285.06C67.5766 292.942 70.711 300.494 76.2684 306.083C81.8258 311.673 89.3597 314.851 97.2413 314.93C105.123 315.009 112.719 311.983 118.388 306.506L166.875 267.563L129.938 407.963C126.724 415.177 126.485 423.367 129.272 430.757C132.059 438.146 137.648 444.139 144.825 447.434C152.003 450.729 160.19 451.061 167.611 448.357C175.031 445.654 181.087 440.133 184.463 432.994L240 337.5L295.463 433.125C298.839 440.265 304.894 445.785 312.315 448.489C319.735 451.192 327.922 450.86 335.1 447.565C342.277 444.27 347.866 438.278 350.653 430.888C353.44 423.499 353.201 415.308 349.988 408.094L313.125 267.563L361.688 306.506C367.356 311.983 374.952 315.009 382.834 314.93C390.716 314.851 398.249 311.673 403.807 306.083C409.364 300.494 412.499 292.942 412.532 285.06C412.566 277.178 409.497 269.599 403.988 263.963H403.913Z" fill="#E6E6E6"/>
</svg>
