<svg width="480" height="480" viewBox="0 0 480 480" fill="none" xmlns="http://www.w3.org/2000/svg">
<path d="M480 255C480 258.978 478.42 262.794 475.607 265.607C472.794 268.42 468.978 270 465 270H435V300C435 303.978 433.42 307.794 430.607 310.607C427.794 313.42 423.978 315 420 315C416.022 315 412.206 313.42 409.393 310.607C406.58 307.794 405 303.978 405 300V270H375C371.022 270 367.206 268.42 364.393 265.607C361.58 262.794 360 258.978 360 255C360 251.022 361.58 247.206 364.393 244.393C367.206 241.58 371.022 240 375 240H405V210C405 206.022 406.58 202.206 409.393 199.393C412.206 196.58 416.022 195 420 195C423.978 195 427.794 196.58 430.607 199.393C433.42 202.206 435 206.022 435 210V240H465C468.978 240 472.794 241.58 475.607 244.393C478.42 247.206 480 251.022 480 255ZM270 295.65C293.514 281.005 311.619 259.099 321.575 233.248C331.531 207.396 332.797 179.006 325.18 152.371C317.564 125.736 301.48 102.307 279.362 85.6271C257.245 68.9474 230.296 59.925 202.594 59.925C174.892 59.925 147.943 68.9474 125.825 85.6271C103.707 102.307 87.6234 125.736 80.0072 152.371C72.3909 179.006 73.6565 207.396 83.6125 233.248C93.5685 259.099 111.673 281.005 135.187 295.65C96.4687 308.325 61.6313 332.006 33.6188 365.344C31.7848 367.524 30.6096 370.181 30.2305 373.004C29.8513 375.827 30.284 378.7 31.4779 381.287C32.6718 383.873 34.5776 386.066 36.9722 387.609C39.3668 389.152 42.1513 389.982 45 390H360C362.858 390.003 365.658 389.189 368.069 387.655C370.48 386.12 372.403 383.928 373.611 381.338C374.818 378.747 375.261 375.865 374.886 373.032C374.51 370.198 373.334 367.531 371.494 365.344C343.462 332.006 308.625 308.325 270 295.65Z" fill="#E6E6E6"/>
</svg>
