<svg width="480" height="480" viewBox="0 0 480 480" fill="none" xmlns="http://www.w3.org/2000/svg">
<path fill-rule="evenodd" clip-rule="evenodd" d="M338.906 27.2391C329.456 28.1813 313.039 32.0513 304.86 35.265C285.037 43.0538 264.715 56.0531 250.801 69.8438C240.309 80.2425 238.83 83.1356 238.338 94.2188C237.936 103.273 235.006 113.417 219.108 160.781L212.185 181.406L190.389 181.875L168.592 182.344L165.859 185.406C161.928 189.808 162.338 198.202 166.596 200.472C167.637 201.028 214.925 201.498 290.314 201.701L412.347 202.031L414.753 199.772C417.998 196.724 418.722 192.323 416.684 188.028C415.795 186.155 414.173 184.11 413.081 183.483C411.758 182.725 404.037 182.187 390 181.875L368.906 181.406L358.458 150.469C345.736 112.801 343.201 104.683 342.321 98.7881C340.757 88.3162 345.051 78.9862 353.376 74.7656L358.462 72.1875H396.074C424.079 72.1875 433.975 71.8997 434.812 71.0625C435.431 70.4438 435.938 68.3737 435.938 66.4631C435.938 63.3544 435.222 62.3241 429.141 56.685C413.259 41.9569 394.116 32.2744 373.791 28.6884C363.845 26.9334 348.406 26.2922 338.906 27.2391ZM97.9687 87.0928C96.9375 87.5391 95.3203 88.7634 94.3753 89.8144C92.8106 91.5544 92.6147 94.3153 92.1881 120.628C91.7325 148.725 91.7747 149.617 93.6731 152.602C94.7466 154.29 96.7322 156.093 98.085 156.607C101.623 157.952 106.609 156.728 108.767 153.985C110.532 151.74 110.625 150.113 110.625 121.443V91.2647L108.415 89.1891C105.956 86.8781 100.838 85.8516 97.9687 87.0928ZM47.085 110.434C44.3203 112.561 43.5656 117.575 45.2916 122.344C49.0256 132.663 64.2544 163.841 66.6994 166.172C70.5834 169.874 75.9928 169.777 79.8337 165.936C83.1525 162.617 82.9791 160.548 78.6544 151.831C77.16 148.819 75.9375 146.152 75.9375 145.904C75.9375 144.459 61.3369 114.327 59.4112 111.797C57.4359 109.202 56.5078 108.753 53.1553 108.771C50.8697 108.783 48.3234 109.48 47.085 110.434ZM145.003 110.859C142.895 112.802 137.629 123.495 126.113 149.217C121.027 160.578 120.853 164.61 125.321 167.539C131.223 171.405 137.227 168.478 141.112 159.844C142.271 157.266 145.004 151.359 147.184 146.719C160.548 118.266 161.04 116.498 156.948 111.635C153.856 107.96 148.525 107.614 145.003 110.859ZM88.2881 198.503C84.8466 202.123 79.2891 206.707 75.9375 208.691C58.2628 219.148 51.6178 230.407 52.7531 247.969C53.7159 262.873 61.3237 275.123 75.2344 284.173L79.6875 287.07V301.842V316.613L84.3469 317.166C86.91 317.469 91.9725 318.964 95.5969 320.486L102.187 323.256V306.032V288.809L107.214 285.096C116.833 277.989 123.436 268.474 126.18 257.762C129.03 246.639 125.754 237.093 116.254 228.829C107.079 220.85 103.475 212.152 104.656 200.846C105.322 194.474 104.407 193.244 98.4037 192.439C94.6219 191.932 94.4212 192.052 88.2881 198.503ZM251.512 220.078L208.181 220.331L206.991 222.431C205.239 225.521 205.56 245.452 207.488 253.347C214.089 280.383 230.46 300.162 256.178 312.175C266.737 317.107 276.272 319.005 290.625 319.033C300.452 319.053 303.844 318.651 311.638 316.541C336.869 309.712 354.956 294.93 366.865 271.406C372.907 259.472 376.694 240.733 375.455 228.901C374.386 218.686 377.365 219.339 333.047 219.6C312.035 219.724 275.345 219.938 251.512 220.078ZM272.871 260.875C268.927 261.893 267.188 264.871 267.188 270.609C267.188 274.764 267.554 275.778 269.658 277.432C271.962 279.245 273.337 279.375 290.156 279.375C306.892 279.375 308.359 279.238 310.62 277.46C315.251 273.817 314.421 264.318 309.22 261.44C306.757 260.077 277.713 259.626 272.871 260.875ZM366.847 302.292C352.857 319.53 326.949 333.564 304.453 336.092L299.062 336.698V400.41V464.123L365.909 463.858L432.757 463.594L438.932 460.459C458.446 450.552 466.692 428.947 458.112 410.207C456.063 405.73 449.147 396.039 439.677 384.375C437.793 382.055 434.142 377.414 431.564 374.063C428.985 370.711 420.793 360.158 413.36 350.614C405.926 341.068 393.588 324.931 385.943 314.754C378.297 304.577 371.969 296.259 371.88 296.271C371.791 296.281 369.527 298.991 366.847 302.292ZM203.887 303.608C184.902 329.515 157.909 364.949 156.847 365.357C156.136 365.63 154.833 365.202 153.95 364.406C153.067 363.611 150.023 362.051 147.188 360.939C144.352 359.828 131.484 354.355 118.594 348.778C89.535 336.208 87.795 335.625 79.3359 335.625C73.5647 335.625 71.5791 336.079 66.7172 338.509C54.9 344.413 48.39 357.051 50.6747 369.651C53.1037 383.044 58.9772 388.804 78.1791 396.623C103.801 407.057 141.602 423.225 144.97 425.191C150.95 428.679 151.264 434.271 145.725 438.627C142.211 441.391 138.001 441.148 129.73 437.705C125.872 436.099 122.477 435.023 122.185 435.315C121.894 435.607 122.953 438.619 124.539 442.009C128.194 449.819 135.294 456.847 143.421 460.698L149.531 463.594L215.391 463.858L281.25 464.123V400.505V336.887L273.516 335.705C251.798 332.385 229.277 319.925 214.688 303.155C212.367 300.488 210.016 298.096 209.463 297.84C208.909 297.583 206.4 300.179 203.887 303.608ZM79.6875 436.905C79.6875 459.087 80.2416 462.375 84.4847 465.346C89.025 468.526 96.2822 466.759 98.8687 461.843C100.175 459.36 100.37 456.246 100.129 441.687L99.8437 424.469L90.9375 420.409C86.0391 418.176 81.5044 416.327 80.8594 416.3C79.9556 416.261 79.6875 420.98 79.6875 436.905Z" fill="white"/>
</svg>
