<svg width="480" height="480" viewBox="0 0 480 480" fill="none" xmlns="http://www.w3.org/2000/svg">
<path d="M90.0001 120C90.0001 116.022 91.5804 112.206 94.3935 109.393C97.2065 106.58 101.022 105 105 105H135V75C135 71.0218 136.58 67.2064 139.393 64.3934C142.207 61.5804 146.022 60 150 60C153.978 60 157.794 61.5804 160.607 64.3934C163.42 67.2064 165 71.0218 165 75V105H195C198.978 105 202.794 106.58 205.607 109.393C208.42 112.206 210 116.022 210 120C210 123.978 208.42 127.794 205.607 130.607C202.794 133.42 198.978 135 195 135H165V165C165 168.978 163.42 172.794 160.607 175.607C157.794 178.42 153.978 180 150 180C146.022 180 142.207 178.42 139.393 175.607C136.58 172.794 135 168.978 135 165V135H105C101.022 135 97.2065 133.42 94.3935 130.607C91.5804 127.794 90.0001 123.978 90.0001 120ZM345 360H330V345C330 341.022 328.42 337.206 325.607 334.393C322.794 331.58 318.978 330 315 330C311.022 330 307.206 331.58 304.393 334.393C301.58 337.206 300 341.022 300 345V360H285C281.022 360 277.206 361.58 274.393 364.393C271.58 367.206 270 371.022 270 375C270 378.978 271.58 382.794 274.393 385.607C277.206 388.42 281.022 390 285 390H300V405C300 408.978 301.58 412.794 304.393 415.607C307.206 418.42 311.022 420 315 420C318.978 420 322.794 418.42 325.607 415.607C328.42 412.794 330 408.978 330 405V390H345C348.978 390 352.794 388.42 355.607 385.607C358.42 382.794 360 378.978 360 375C360 371.022 358.42 367.206 355.607 364.393C352.794 361.58 348.978 360 345 360ZM450 270H420V240C420 236.022 418.42 232.206 415.607 229.393C412.794 226.58 408.978 225 405 225C401.022 225 397.206 226.58 394.393 229.393C391.58 232.206 390 236.022 390 240V270H360C356.022 270 352.206 271.58 349.393 274.393C346.58 277.206 345 281.022 345 285C345 288.978 346.58 292.794 349.393 295.607C352.206 298.42 356.022 300 360 300H390V330C390 333.978 391.58 337.794 394.393 340.607C397.206 343.42 401.022 345 405 345C408.978 345 412.794 343.42 415.607 340.607C418.42 337.794 420 333.978 420 330V300H450C453.978 300 457.794 298.42 460.607 295.607C463.42 292.794 465 288.978 465 285C465 281.022 463.42 277.206 460.607 274.393C457.794 271.58 453.978 270 450 270ZM411.206 150L150 411.206C144.375 416.828 136.747 419.986 128.794 419.986C120.841 419.986 113.213 416.828 107.588 411.206L68.7751 372.431C65.9886 369.645 63.7782 366.338 62.2701 362.698C60.762 359.057 59.9858 355.156 59.9858 351.216C59.9858 347.275 60.762 343.374 62.2701 339.734C63.7782 336.093 65.9886 332.786 68.7751 330L330 68.7937C332.786 66.0073 336.093 63.7969 339.734 62.2888C343.374 60.7807 347.275 60.0045 351.216 60.0045C355.156 60.0045 359.058 60.7807 362.698 62.2888C366.338 63.7969 369.645 66.0073 372.431 68.7937L411.206 107.569C413.993 110.355 416.203 113.662 417.711 117.302C419.219 120.943 419.996 124.844 419.996 128.784C419.996 132.725 419.219 136.626 417.711 140.266C416.203 143.907 413.993 147.214 411.206 150ZM308.775 210L270 171.206L90.0001 351.206L128.775 390L308.775 210ZM390 128.794L351.206 90L291.206 150L330 188.794L390 128.794Z" fill="white"/>
</svg>
