<?xml version="1.0" encoding="UTF-8" standalone="no"?>
<svg
   xmlns:dc="http://purl.org/dc/elements/1.1/"
   xmlns:cc="http://creativecommons.org/ns#"
   xmlns:rdf="http://www.w3.org/1999/02/22-rdf-syntax-ns#"
   xmlns:svg="http://www.w3.org/2000/svg"
   xmlns="http://www.w3.org/2000/svg"
   xmlns:sodipodi="http://sodipodi.sourceforge.net/DTD/sodipodi-0.dtd"
   xmlns:inkscape="http://www.inkscape.org/namespaces/inkscape"
   version="1.1"
   x="0px"
   y="0px"
   viewBox="0 0 100 100"
   enable-background="new 0 0 100 100"
   xml:space="preserve"
   id="svg5115"
   sodipodi:docname="cast.svg"
   width="100"
   height="100"
   inkscape:version="0.92.1 r15371"
   inkscape:export-filename="C:\Projects\SpellParser\site\img\cast.png"
   inkscape:export-xdpi="245.75999"
   inkscape:export-ydpi="245.75999"><metadata
     id="metadata5121"><rdf:RDF><cc:Work
         rdf:about=""><dc:format>image/svg+xml</dc:format><dc:type
           rdf:resource="http://purl.org/dc/dcmitype/StillImage" /><dc:title></dc:title></cc:Work></rdf:RDF></metadata><defs
     id="defs5119" /><sodipodi:namedview
     
     bordercolor="#666666"
     borderopacity="1"
     objecttolerance="10"
     gridtolerance="10"
     guidetolerance="10"
     inkscape:pageopacity="0"
     inkscape:pageshadow="2"
     inkscape:window-width="1920"
     inkscape:window-height="1017"
     id="namedview5117"
     showgrid="false"
     showguides="true"
     inkscape:guide-bbox="true"
     inkscape:snap-global="false"
     inkscape:zoom="5.3400704"
     inkscape:cx="113.75923"
     inkscape:cy="40.413191"
     inkscape:window-x="1912"
     inkscape:window-y="-8"
     inkscape:window-maximized="1"
     inkscape:current-layer="svg5115" /><g
     id="g5105"
     transform="matrix(1.1244032,0,0,1.1244032,-6.2646987,-5.6369732)" /><g
     id="g5825"
     transform="translate(1.0682202,0.68185452)"><g
       transform="matrix(1.1206197,0.09216289,-0.09216289,1.1206197,-8.754634,-2.2320439)"
       id="g5065"><path
         sodipodi:nodetypes="scsccscccccsccs"
         inkscape:connector-curvature="0"
         id="path5063"
         d="m 43.146,85.4 c -0.384,0 -0.768,-0.146 -1.061,-0.439 -0.586,-0.585 -0.586,-1.535 0,-2.121 L 51.387,73.538 34.658,57.319 23.839,68.138 c -0.586,0.586 -1.535,0.586 -2.121,0 -0.586,-0.585 -0.586,-1.536 0,-2.121 L 33.581,54.154 c 0.579,-0.58 1.516,-0.587 2.104,-0.017 l 18.884,18.307 c 0.289,0.28 0.453,0.664 0.456,1.065 0.003,0.401 -0.155,0.788 -0.439,1.072 L 44.207,84.961 C 43.914,85.254 43.53,85.4 43.146,85.4 Z" /></g><g
       transform="matrix(1.1206197,0.09216289,-0.09216289,1.1206197,0.5369966,-10.00795)"
       id="g5069"><path
         sodipodi:nodetypes="sccssccccccscccs"
         inkscape:connector-curvature="0"
         id="path5067"
         d="m 42.826,79.499 c -0.384,0 -0.768,-0.146 -1.061,-0.439 -0.586,-0.585 -0.586,-1.536 0,-2.121 L 52.818,65.886 c 0.281,-0.281 0.663,-0.439 1.061,-0.439 h 0.002 l 2.603,0.003 8.862,-8.853 c 0.586,-0.586 1.536,-0.586 2.122,10e-4 0.585,0.586 0.585,1.536 -0.001,2.121 l -9.303,9.292 c -0.282,0.281 -0.663,0.439 -1.061,0.439 H 57.101 L 54.498,68.447 43.886,79.059 c -0.292,0.294 -0.676,0.44 -1.06,0.44 z" /></g><g
       transform="matrix(1.1206197,0.09216289,-0.09216289,1.1206197,0.5369966,-10.00795)"
       id="g5073"><path
         sodipodi:nodetypes="sccccccscccccs"
         inkscape:connector-curvature="0"
         id="path5071"
         d="m 30.479,67.152 c -0.384,0 -0.768,-0.146 -1.061,-0.439 -0.586,-0.585 -0.586,-1.535 0,-2.121 L 40.981,53.028 41.227,37.834 c 0.007,-0.389 0.164,-0.761 0.439,-1.036 L 44.466,34 c 0.586,-0.586 1.535,-0.586 2.121,0 0.586,0.586 0.586,1.536 0,2.121 l -2.368,2.368 -0.246,15.194 c -0.007,0.389 -0.164,0.761 -0.439,1.036 L 31.541,66.713 c -0.294,0.293 -0.678,0.439 -1.062,0.439 z" /></g><g
       transform="matrix(1.1206197,0.09216289,-0.09216289,1.1206197,0.5369966,-10.00795)"
       id="g5077"><path
         inkscape:connector-curvature="0"
         id="path5075"
         d="m 48.222,41.797 c -0.384,0 -0.767,-0.146 -1.06,-0.438 -0.586,-0.585 -0.588,-1.535 -0.002,-2.122 l 5.076,-5.078 c 4.289,-4.289 4.288,-4.285 5.35,-3.686 l -0.735,1.307 -0.803,1.268 0.803,-1.268 0.886,1.206 c -0.074,0.061 -0.587,0.503 -3.379,3.295 l -5.074,5.076 c -0.294,0.293 -0.678,0.44 -1.062,0.44 z" /></g><g
       transform="matrix(1.1206197,0.09216289,-0.09216289,1.1206197,0.5369966,-10.00795)"
       id="g5081"><path
         style="fill:none;stroke:#000000;stroke-width:3;stroke-linecap:round;stroke-linejoin:round;stroke-miterlimit:10"
         inkscape:connector-curvature="0"
         id="path5079"
         d="M 61.672,48.99"
         stroke-miterlimit="10" /></g><g
       transform="matrix(1.1206197,0.09216289,-0.09216289,1.1206197,0.5369966,-10.00795)"
       id="g5085"><path
         inkscape:connector-curvature="0"
         id="path5083"
         d="m 48.045,41.974 c -0.384,0 -0.768,-0.146 -1.061,-0.439 -0.586,-0.585 -0.586,-1.535 0,-2.121 l 8.748,-8.75 c 1.354,-1.353 4.597,-3.227 7.174,-0.648 1.573,1.572 1.753,2.997 1.627,3.916 -0.147,1.083 -0.755,1.737 -0.875,1.857 l -2.121,-2.121 c 0.127,-0.175 0.05,-0.729 -0.752,-1.531 -1.091,-1.09 -2.751,0.472 -2.938,0.654 l -8.742,8.744 c -0.292,0.292 -0.676,0.439 -1.06,0.439 z" /></g><g
       transform="matrix(1.1206197,0.09216289,-0.09216289,1.1206197,0.5369966,-10.00795)"
       id="g5089"><path
         inkscape:connector-curvature="0"
         id="path5087"
         d="m 66.037,59.518 c -0.384,0 -0.768,-0.146 -1.061,-0.439 -0.586,-0.585 -0.586,-1.535 0,-2.121 L 73.5,48.432 c 0.177,-0.181 1.74,-1.839 0.648,-2.93 -0.541,-0.541 -1.048,-0.819 -1.388,-0.777 -0.017,0.002 -0.143,0.024 -0.143,0.024 -0.586,0.585 -1.535,0.585 -2.121,0 -0.586,-0.585 -0.586,-1.536 0,-2.122 0.12,-0.12 0.774,-0.727 1.857,-0.875 0.92,-0.128 2.345,0.056 3.915,1.627 1.357,1.356 1.646,3.139 0.813,5.02 -0.535,1.208 -1.368,2.06 -1.461,2.153 l -8.524,8.525 c -0.291,0.295 -0.675,0.441 -1.059,0.441 z" /></g><g
       transform="matrix(1.1206197,0.09216289,-0.09216289,1.1206197,0.5369966,-10.00795)"
       id="g5093"><path
         inkscape:connector-curvature="0"
         id="path5091"
         d="M 72.54,44.673 70.421,42.55 C 70.548,42.375 70.472,41.822 69.67,41.021 68.649,40 68.142,40.264 68.139,40.269 c -0.586,0.585 -1.535,0.585 -2.121,0 -0.586,-0.585 -0.586,-1.536 0,-2.122 0.699,-0.696 3.097,-1.925 5.773,0.753 1.573,1.573 1.753,2.998 1.626,3.917 -0.148,1.082 -0.757,1.736 -0.877,1.856 z" /></g><g
       transform="matrix(1.1206197,0.09216289,-0.09216289,1.1206197,0.5369966,-10.00795)"
       id="g5097"><path
         inkscape:connector-curvature="0"
         id="path5095"
         d="m 68.139,40.269 -2.121,-2.122 c 0.127,-0.175 0.05,-0.728 -0.752,-1.53 -0.541,-0.541 -1.039,-0.824 -1.389,-0.776 -0.017,0.002 -0.143,0.024 -0.143,0.024 -0.586,0.586 -1.535,0.586 -2.121,0 -0.586,-0.585 -0.586,-1.536 0,-2.121 0.12,-0.12 0.774,-0.727 1.857,-0.875 0.925,-0.126 2.344,0.055 3.916,1.628 1.573,1.572 1.753,2.997 1.627,3.915 -0.147,1.083 -0.754,1.737 -0.874,1.857 z" /></g><g
       style="fill:#000000"
       transform="matrix(1.1206197,0.09216289,-0.09216289,1.1206197,0.5369966,-10.00795)"
       id="g5101"><path
         sodipodi:nodetypes="csscsccccccccccc"
         style="fill:#000000"
         inkscape:connector-curvature="0"
         id="path5099"
         d="m 50.551,40.086 c -0.293,0.293 -0.677,0.439 -1.061,0.439 -0.384,0 -0.768,-0.146 -1.061,-0.439 L 37.105,28.762 c -0.586,-0.585 -0.586,-1.535 0,-2.121 L 41.331,22.415 33.093,9.473 C 32.707,8.867 32.806,8.073 33.326,7.579 33.847,7.084 34.645,7.031 35.23,7.447 l 17.767,12.689 c 0.358,0.256 0.586,0.657 0.623,1.097 0.036,0.439 -0.123,0.873 -0.435,1.185 l -4.015,4.016 6.456,6.456 c 0.586,0.585 0.58775,1.53775 0.002,2.123 z" /></g><path
       sodipodi:nodetypes="cccsccccsccsccccc"
       inkscape:connector-curvature="0"
       id="path5103"
       d="m 73.020815,52.546922 c 0.63206,-0.535996 1.577867,-0.458211 2.113863,0.17385 l 6.966202,8.21363 c 0.257022,0.303087 0.383179,0.696752 0.350557,1.093413 -0.03262,0.39666 -0.22132,0.763428 -0.524489,1.021446 l -4.559165,3.86531 7.149147,13.577674 c 0.33503,0.6356 0.171282,1.418814 -0.387459,1.868529 -0.310487,0.24939 -0.691631,0.357513 -1.063376,0.32694 -0.303974,-0.025 -0.59941,-0.141608 -0.846198,-0.349536 L 65.551998,68.232512 c -0.335812,-0.284482 -0.531092,-0.7039 -0.530987,-1.144373 1.04e-4,-0.440474 0.194142,-0.859981 0.530666,-1.145358 l 4.331744,-3.674307 -2.511599,-2.962836 c -0.535996,-0.63206 -0.458129,-1.578863 0.17385,-2.113863 z"
       transform="matrix(1.1244032,0,0,1.1244032,-6.2646987,-5.6369732)" /><g
       transform="rotate(4.7015833,-30.884429,-25.91739)"
       id="g5109">
    
         style="stroke-width:1.12440324"
         sodipodi:nodetypes="scsscscs"
         inkscape:connector-curvature="0"
         id="path5107"
         d="m 25.813272,72.825541 c -0.431771,0 -0.863542,-0.164164 -1.192992,-0.493614 -0.658901,-0.657775 -0.658901,-1.725959 0,-2.384859 l 3.572228,-3.572229 c 0.658901,-0.6589 1.72596,-0.6589 2.384859,0 0.658901,0.657775 0.658901,1.725959 0,2.384859 l -3.572228,3.572229 c -0.328326,0.32945 -0.760097,0.493614 -1.191867,0.493614 z" /></g><g
        ><polyline/><polyline
        /></g><g
       id="g5758"
       transform="matrix(0.41806788,-0.35452749,0.35452749,0.41806788,-24.277754,95.455839)"><circle
         transform="rotate(-23.307009)"
         id="circle5690"
         r="12.7"
         cy="87.222099"
         cx="101.26997"
         stroke-miterlimit="10"
         style="fill:none;stroke:#;stroke-width:2;stroke-miterlimit:10" /><polyline
         id="polyline5692"
         points="22.2,14.3 22.2,24 28.3,24  "
         stroke-miterlimit="10"
         style="fill:none;stroke:#;stroke-width:2;stroke-miterlimit:10"
         transform="translate(105.31625,16.036327)" /></g></g></svg>